<?xml version="1.0" encoding="UTF-8" standalone="no"?>
<!-- Created with Inkscape (http://www.inkscape.org/) -->
<svg
   xmlns:dc="http://purl.org/dc/elements/1.1/"
   xmlns:cc="http://creativecommons.org/ns#"
   xmlns:rdf="http://www.w3.org/1999/02/22-rdf-syntax-ns#"
   xmlns:svg="http://www.w3.org/2000/svg"
   xmlns="http://www.w3.org/2000/svg"
   xmlns:sodipodi="http://sodipodi.sourceforge.net/DTD/sodipodi-0.dtd"
   xmlns:inkscape="http://www.inkscape.org/namespaces/inkscape"
   id="svg2"
   sodipodi:version="0.32"
   inkscape:version="0.46"
   width="30"
   height="22"
   version="1.0"
   sodipodi:docname="medickit.svg"
   inkscape:output_extension="org.inkscape.output.svg.inkscape">
  <metadata
     id="metadata7">
    <rdf:RDF>
      <cc:Work
         rdf:about="">
        <dc:format>image/svg+xml</dc:format>
        <dc:type
           rdf:resource="http://purl.org/dc/dcmitype/StillImage" />
      </cc:Work>
    </rdf:RDF>
  </metadata>
  <defs
     id="defs5">
    <inkscape:perspective
       sodipodi:type="inkscape:persp3d"
       inkscape:vp_x="0 : 526.18109 : 1"
       inkscape:vp_y="0 : 1000 : 0"
       inkscape:vp_z="744.09448 : 526.18109 : 1"
       inkscape:persp3d-origin="372.04724 : 350.78739 : 1"
       id="perspective9" />
  </defs>
  <sodipodi:namedview
     inkscape:window-height="951"
     inkscape:window-width="1280"
     inkscape:pageshadow="2"
     inkscape:pageopacity="0.0"
     guidetolerance="10.0"
     gridtolerance="10.0"
     objecttolerance="10.0"
     borderopacity="1.0"
     bordercolor="#666666"
     pagecolor="#ffffff"
     id="base"
     showgrid="false"
     showguides="true"
     inkscape:guide-bbox="true"
     inkscape:zoom="4"
     inkscape:cx="10.968596"
     inkscape:cy="34.334554"
     inkscape:window-x="0"
     inkscape:window-y="25"
     inkscape:current-layer="svg2">
    <inkscape:grid
       type="xygrid"
       id="grid2384"
       visible="true"
       enabled="true" />
  </sodipodi:namedview>
  <rect
     style="opacity:1;fill:#7f7f7f;fill-opacity:1;stroke:none;stroke-width:5.5;stroke-linecap:round;stroke-linejoin:round;stroke-miterlimit:4;stroke-dasharray:none;stroke-dashoffset:0;stroke-opacity:1"
     id="rect2386"
     width="30"
     height="22"
     x="0"
     y="0"
     rx="2"
     ry="2" />
  <rect
     rx="1.5"
     y="2"
     x="2"
     height="18"
     width="26"
     id="rect3158"
     style="opacity:1;fill:#fefefe;fill-opacity:1;stroke:none;stroke-width:5.5;stroke-linecap:round;stroke-linejoin:round;stroke-miterlimit:4;stroke-dasharray:none;stroke-dashoffset:0;stroke-opacity:1"
     ry="1.5" />
  <path
     style="opacity:1;fill:#e6e6e6;fill-opacity:1;stroke:none;stroke-width:5.5;stroke-linecap:round;stroke-linejoin:round;stroke-miterlimit:4;stroke-dasharray:none;stroke-dashoffset:0;stroke-opacity:1"
     d="M 8.53125,2 L 2,11.796875 L 2,17.75 C 2,17.859531 2.0212628,17.972862 2.03125,18.078125 L 12.75,2 L 8.53125,2 z M 17,2 L 5,20 L 12.0625,20 L 24.09375,2 L 17,2 z M 28,4.578125 L 17.71875,20 L 20.5625,20 L 28,8.84375 L 28,4.578125 z"
     id="rect3164" />
  <path
     style="opacity:1;fill:#ff0000;fill-opacity:1;stroke:none;stroke-width:5.5;stroke-linecap:round;stroke-linejoin:round;stroke-miterlimit:4;stroke-dasharray:none;stroke-dashoffset:0;stroke-opacity:1"
     d="M 6,3 L 6,6 L 3,6 L 3,10 L 6,10 L 6,13 L 10,13 L 10,10 L 13,10 L 13,6 L 10,6 L 10,3 L 6,3 z"
     id="rect3160"
     sodipodi:nodetypes="ccccccccccccc" />
  <path
     style="opacity:1;fill:#000000;fill-opacity:0.46330273;stroke:none;stroke-width:5.5;stroke-linecap:round;stroke-linejoin:round;stroke-miterlimit:4;stroke-dasharray:none;stroke-dashoffset:0;stroke-opacity:1"
     d="M 14,0 L 14,14 L 0,14 L 0,16 L 14,16 L 14,22 L 16,22 L 16,16 L 30,16 L 30,14 L 16,14 L 16,0 L 14,0 z"
     id="rect3180"
     sodipodi:nodetypes="ccccccccccccc" />
</svg>
